<?xml version="1.0" standalone="no"?>
<!DOCTYPE svg PUBLIC "-//W3C//DTD SVG 20010904//EN"
 "http://www.w3.org/TR/2001/REC-SVG-20010904/DTD/svg10.dtd">
<svg version="1.0" xmlns="http://www.w3.org/2000/svg"
 width="225.000000pt" height="225.000000pt" viewBox="0 0 225.000000 225.000000"
 preserveAspectRatio="xMidYMid meet">

<g transform="translate(0.000000,225.000000) scale(0.100000,-0.100000)"
fill="#000000" stroke="none">
<path d="M540 2169 c-171 -25 -336 -142 -411 -291 -55 -109 -59 -142 -59 -499
l0 -328 70 -70 c38 -39 70 -75 70 -81 0 -5 6 -10 14 -10 8 0 16 -7 20 -15 19
-50 24 15 29 338 3 237 8 365 16 392 54 175 193 310 361 349 53 13 143 16 481
16 235 0 440 -4 470 -10 186 -34 350 -195 388 -378 18 -85 15 -902 -4 -971
-35 -133 -137 -262 -249 -315 -104 -49 -162 -56 -509 -56 -236 0 -321 -3 -331
-12 -11 -10 -8 -15 12 -25 13 -7 30 -13 36 -13 6 0 17 -13 23 -30 6 -16 18
-30 27 -30 9 0 16 -8 16 -20 0 -11 6 -20 14 -20 8 0 16 -5 18 -12 3 -9 89 -12
349 -13 339 0 345 0 409 24 86 32 162 81 226 146 60 62 94 120 126 213 l23 67
0 610 0 610 -23 64 c-67 186 -227 326 -417 366 -57 12 -170 14 -605 14 -294
-1 -560 -5 -590 -10z"/>
<path d="M668 1825 c-135 -37 -232 -142 -257 -280 -13 -70 -14 -810 -1 -840 8
-18 9 -18 10 5 1 24 1 24 14 -6 8 -17 22 -34 31 -38 10 -3 16 -9 13 -11 -3 -3
12 -23 34 -45 21 -23 38 -49 38 -58 0 -11 3 -13 8 -5 4 7 16 -1 32 -23 14 -18
31 -34 37 -34 7 0 12 -4 10 -9 -1 -4 17 -24 40 -43 23 -20 39 -38 36 -42 -4
-3 3 -6 15 -6 11 0 24 -4 27 -10 4 -6 149 -10 403 -10 443 0 465 3 559 65 65
43 127 132 142 206 7 31 11 209 11 473 0 468 -1 477 -63 571 -43 64 -130 124
-206 142 -79 18 -865 17 -933 -2z m1005 -196 c9 -12 17 -36 17 -54 0 -44 -27
-74 -72 -81 -30 -5 -41 -2 -62 19 -58 58 -15 156 62 143 20 -3 45 -15 55 -27z
m-442 -133 c216 -46 359 -222 359 -442 0 -179 -95 -330 -255 -405 -91 -43
-162 -55 -254 -41 -185 29 -329 157 -376 337 -63 245 93 495 345 551 73 16
103 16 181 0z"/>
<path d="M1067 1370 c-93 -24 -175 -90 -218 -178 -34 -69 -34 -207 0 -272 39
-74 77 -115 138 -148 219 -116 474 36 474 284 0 91 -28 161 -91 224 -76 76
-205 114 -303 90z"/>
<path d="M440 639 c0 -5 5 -7 10 -4 6 3 10 8 10 11 0 2 -4 4 -10 4 -5 0 -10
-5 -10 -11z"/>
</g>
</svg>
